name Walk1.mot
datacolumns 19
datarows 10
range 2.18000000 2.22500000
endheader

                time	   L_ground_force_vx	   L_ground_force_vy	   L_ground_force_vz	   L_ground_force_px	   L_ground_force_py	   L_ground_force_pz	   R_ground_force_vx	   R_ground_force_vy	   R_ground_force_vz	   R_ground_force_px	   R_ground_force_py	   R_ground_force_pz	   L_ground_torque_x	   L_ground_torque_y	   L_ground_torque_z	   R_ground_torque_x	   R_ground_torque_y	   R_ground_torque_z	
          2.18000000	          0.00366496	          0.05751037	         -0.00367738	         -0.00007022	          0.00000000	         -0.00000647	        -58.86016141	        915.07627494	        -57.00811242	          0.63173294	          0.00000000	          0.14130035	          0.00000000	          0.00002706	          0.00000000	          0.00000000	          4.81199343	          0.00000000	
          2.18500000	         -0.00229780	          0.03573219	         -0.00204920	         -0.00005706	          0.00000000	         -0.00000234	        -56.17056524	        900.73733126	        -56.02466741	          0.63290385	          0.00000000	          0.14146837	          0.00000000	          0.00005941	          0.00000000	          0.00000000	          4.53162398	          0.00000000	
          2.19000000	         -0.00593987	          0.01894027	         -0.00084301	         -0.00004410	          0.00000000	          0.00000050	        -53.55307995	        886.81610905	        -55.21826391	          0.63397818	          0.00000000	          0.14162948	          0.00000000	          0.00007546	          0.00000000	          0.00000000	          4.26176825	          0.00000000	
          2.19500000	         -0.00780568	          0.00667400	         -0.00000283	         -0.00003231	          0.00000000	          0.00000228	        -50.99365061	        873.34530797	        -54.58115856	          0.63495017	          0.00000000	          0.14178078	          0.00000000	          0.00007979	          0.00000000	          0.00000000	          3.99934726	          0.00000000	
          2.20000000	         -0.00838486	         -0.00171996	          0.00053618	         -0.00002219	          0.00000000	          0.00000324	        -48.47636903	        860.38176426	        -54.08401651	          0.63581287	          0.00000000	          0.14191883	          0.00000000	          0.00007625	          0.00000000	          0.00000000	          3.74167834	          0.00000000	
          2.20500000	         -0.00809314	         -0.00696681	          0.00083944	         -0.00001395	          0.00000000	          0.00000360	        -45.98464307	        848.00665174	        -53.68273004	          0.63655857	          0.00000000	          0.14204053	          0.00000000	          0.00006795	          0.00000000	          0.00000000	          3.48641474	          0.00000000	
          2.21000000	         -0.00726599	         -0.00978053	          0.00096752	         -0.00000756	          0.00000000	          0.00000355	        -43.50055025	        836.32259755	        -53.32648947	          0.63717923	          0.00000000	          0.14214351	          0.00000000	          0.00005726	          0.00000000	          0.00000000	          3.23091543	          0.00000000	
          2.21500000	         -0.00616090	         -0.01081139	          0.00097313	         -0.00000286	          0.00000000	          0.00000323	        -41.00481276	        825.45097377	        -52.96500529	          0.63766755	          0.00000000	          0.14222607	          0.00000000	          0.00004587	          0.00000000	          0.00000000	          2.97196276	          0.00000000	
          2.22000000	         -0.00496498	         -0.01061741	          0.00089977	          0.00000038	          0.00000000	          0.00000278	        -38.47819355	        815.53168225	        -52.55448530	          0.63801831	          0.00000000	          0.14228729	          0.00000000	          0.00003494	          0.00000000	          0.00000000	          2.70613696	          0.00000000	
          2.22500000	         -0.00380539	         -0.00965330	          0.00078157	          0.00000242	          0.00000000	          0.00000226	        -35.90475512	        806.71939852	        -52.06371144	          0.63822976	          0.00000000	          0.14232747	          0.00000000	          0.00002517	          0.00000000	          0.00000000	          2.43010765	          0.00000000	
